<?xml version="1.0" encoding="UTF-8"?>
<svg id="Layer_1" data-name="Layer 1" xmlns="http://www.w3.org/2000/svg" viewBox="0 0 300 300">
  <defs>
    <style>
      .cls-1 {
        fill: #231f20;
        stroke-width: 0px;
      }
    </style>
  </defs>
  <path class="cls-1" d="m150,0C67.16,0,0,67.16,0,150s67.16,150,150,150,150-67.16,150-150S232.84,0,150,0Zm36.49,237.03c0,20.16-16.34,36.49-36.49,36.49s-36.49-16.33-36.49-36.49v-72.98c0-20.16,16.34-36.5,36.49-36.5s36.49,16.34,36.49,36.5v72.98Zm-36.49-123.61c-20.15,0-36.49-16.34-36.49-36.49s16.34-36.49,36.49-36.49,36.49,16.34,36.49,36.49-16.34,36.49-36.49,36.49Z"/>
</svg>